HIERARCHY
ROOT root
{
	OFFSET 0.000000 0.000000 0.000000
	CHANNELS 6 Xposition Yposition Zposition Zrotation Yrotation Xrotation
	JOINT lhip
	{
		OFFSET 0.058581 -0.082280 -0.017664
		CHANNELS 3 Zrotation Yrotation Xrotation
		JOINT lknee
		{
			OFFSET 0.043451 -0.386469 0.008037
			CHANNELS 3 Zrotation Yrotation Xrotation
			JOINT lankle
			{
				OFFSET -0.014790 -0.426874 -0.037428
				CHANNELS 3 Zrotation Yrotation Xrotation
				JOINT ltoe
				{
					OFFSET 0.041054 -0.060286 0.122042
					CHANNELS 3 Zrotation Yrotation Xrotation
					End Site
					{
						OFFSET 0.000000 0.000000 0.000000
					}
				}
			}
		}
	}
	JOINT rhip
	{
		OFFSET -0.060310 -0.090513 -0.013543
		CHANNELS 3 Zrotation Yrotation Xrotation
		JOINT rknee
		{
			OFFSET -0.043257 -0.383688 -0.004843
			CHANNELS 3 Zrotation Yrotation Xrotation
			JOINT rankle
			{
				OFFSET 0.019056 -0.420046 -0.034562
				CHANNELS 3 Zrotation Yrotation Xrotation
				JOINT rtoe
				{
					OFFSET -0.034840 -0.062106 0.130323
					CHANNELS 3 Zrotation Yrotation Xrotation
					End Site
					{
						OFFSET 0.000000 0.000000 0.000000
					}
				}
			}
		}
	}
	JOINT lowerback
	{
		OFFSET 0.004439 0.124404 -0.038385
		CHANNELS 3 Zrotation Yrotation Xrotation
		JOINT upperback
		{
			OFFSET 0.004488 0.137956 0.026820
			CHANNELS 3 Zrotation Yrotation Xrotation
			JOINT chest
			{
				OFFSET -0.002265 0.056032 0.002855
				CHANNELS 3 Zrotation Yrotation Xrotation
				JOINT lowerneck
				{
					OFFSET -0.013390 0.211636 -0.033468
					CHANNELS 3 Zrotation Yrotation Xrotation
					JOINT upperneck
					{
						OFFSET 0.010113 0.088937 0.050410
						CHANNELS 3 Zrotation Yrotation Xrotation
						End Site
						{
							OFFSET 0.000000 0.000000 0.000000
						}
					}
				}
				JOINT lclavicle
				{
					OFFSET 0.071702 0.114000 -0.018898
					CHANNELS 3 Zrotation Yrotation Xrotation
					JOINT lshoulder
					{
						OFFSET 0.122921 0.045205 -0.019046
						CHANNELS 3 Zrotation Yrotation Xrotation
						JOINT lelbow
						{
							OFFSET 0.255332 -0.015649 -0.022946
							CHANNELS 3 Zrotation Yrotation Xrotation
							JOINT lwrist
							{
								OFFSET 0.265709 0.012698 -0.007375
								CHANNELS 3 Zrotation Yrotation Xrotation
								End Site
								{
									OFFSET 0.000000 0.000000 0.000000
								}
							}
						}
					}
				}
				JOINT rclavicle
				{
					OFFSET -0.082954 0.112472 -0.023707
					CHANNELS 3 Zrotation Yrotation Xrotation
					JOINT rshoulder
					{
						OFFSET -0.113228 0.046853 -0.008472
						CHANNELS 3 Zrotation Yrotation Xrotation
						JOINT relbow
						{
							OFFSET -0.260127 -0.014369 -0.031269
							CHANNELS 3 Zrotation Yrotation Xrotation
							JOINT rwrist
							{
								OFFSET -0.269108 0.006794 -0.006027
								CHANNELS 3 Zrotation Yrotation Xrotation
								End Site
								{
									OFFSET 0.000000 0.000000 0.000000
								}
							}
						}
					}
				}
			}
		}
	}
}
MOTION
Frames: 11
Frame Time: 0.033333
0.452509 0.140442 0.831243 128.694070 1.270296 110.783184 20.521094 -5.884512 -71.808941 -5.385276 7.619602 63.724609 4.352135 -8.436923 -23.572270 0.000000 -0.000000 0.000000 -7.287145 2.678796 -56.034009 -23.853226 -17.846008 79.327043 -2.145872 -16.398681 -30.879605 0.000000 -0.000000 0.000000 -4.273841 2.332869 37.573913 -1.101043 -1.074121 -8.018933 0.872871 0.102335 -7.012746 -1.985312 23.528821 1.055082 -0.754890 -0.509932 -20.060932 4.575089 6.149634 -11.967832 -94.858003 -22.217886 37.745925 160.419336 -39.218850 -112.771814 -57.186304 -15.293985 9.403539 6.243316 14.116350 -0.507447 76.556664 35.891649 35.980038 -158.749420 43.168418 -105.438259 33.369800 4.472703 -0.057162 
0.460480 0.145541 0.858533 128.934352 1.922739 109.716475 19.803339 -6.617813 -66.460571 -5.621184 5.963183 58.229350 3.821880 -8.211283 -22.003374 0.000000 -0.000000 0.000000 -5.312770 2.186336 -50.948441 -22.058452 -19.564298 72.960887 -2.193606 -16.083318 -29.565137 0.000000 -0.000000 0.000000 -3.917683 2.504339 34.307633 -1.121896 -0.654027 -8.206360 0.751371 0.214590 -6.048115 -1.371884 24.137122 -0.442728 -1.184969 -0.347881 -18.322073 5.131103 6.479589 -12.128797 -95.372093 -22.601721 37.686598 160.373203 -39.206842 -113.312765 -57.559765 -14.741937 9.760403 5.508063 13.677820 -1.092938 76.989690 36.458078 36.094706 -159.258991 43.408976 -106.669217 33.152360 4.015239 0.036967 
0.469201 0.151925 0.886729 128.859738 2.640129 108.585559 19.015916 -7.133298 -60.503834 -5.599645 4.294221 51.947014 3.221145 -7.787467 -20.274828 0.000000 -0.000000 0.000000 -3.360173 1.553114 -45.417246 -19.700575 -21.179551 65.693696 -2.084436 -15.565725 -28.212828 0.000000 -0.000000 0.000000 -3.356146 2.726852 30.262558 -1.140402 -0.181252 -8.088172 0.578644 0.419338 -4.969410 -0.543968 24.685470 -1.471713 -1.939901 -0.361127 -16.229472 5.317577 6.666466 -12.676878 -95.551789 -22.608165 37.476566 160.332116 -39.465616 -113.811615 -56.919352 -14.616265 9.858277 4.651736 13.368719 -1.800848 77.773096 36.548342 36.346786 -159.622443 43.748825 -107.918437 31.580966 3.685418 0.025151 
0.477938 0.159306 0.915421 128.597877 2.896078 107.196299 17.731872 -8.012230 -54.066042 -5.260325 2.548027 45.271031 2.634419 -7.073272 -18.075798 0.000000 -0.000000 0.000000 -2.036954 0.434458 -39.260667 -16.712369 -22.507751 57.535108 -1.897944 -14.751121 -26.738461 0.000000 -0.000000 0.000000 -3.035611 3.368799 26.221591 -1.104343 -0.050363 -7.709797 0.403865 0.686044 -4.163726 0.371960 24.685162 -2.511909 -2.157548 -0.056791 -13.466633 5.132733 6.477000 -12.935348 -95.146155 -23.085431 37.219574 160.559473 -39.708877 -114.525196 -55.782713 -14.730796 9.640814 4.133694 12.897906 -2.619950 78.278509 36.237059 36.281400 -160.036625 43.900955 -109.649268 30.698920 3.452499 0.091483 
0.486570 0.167720 0.943221 127.959093 2.656588 105.745534 15.896658 -9.362177 -47.297367 -4.269115 0.836049 38.235885 2.111485 -6.007417 -15.945130 0.000000 -0.000000 0.000000 -1.565677 -0.807051 -32.975082 -13.523344 -23.320583 49.057784 -1.328897 -13.498933 -24.958462 0.000000 -0.000000 0.000000 -3.146877 4.192941 22.176060 -1.125363 -0.167152 -7.574212 0.192253 1.069666 -3.371428 0.890088 24.254246 -2.029409 -1.379061 0.056828 -12.204397 5.155707 6.551449 -13.093078 -94.896358 -23.551101 37.298474 160.913758 -39.851692 -115.434825 -55.488545 -14.224010 9.447149 4.106425 12.430815 -3.315685 78.488234 35.819636 36.098624 -160.642992 43.858819 -111.567900 31.136910 2.842116 0.596081 
0.494683 0.176003 0.967663 127.396303 2.421253 104.497082 14.029403 -10.775615 -40.849078 -2.774386 -0.888061 31.228090 1.600808 -4.731134 -13.729870 0.000000 -0.000000 0.000000 -1.284449 -1.837257 -26.979333 -10.572918 -23.926350 40.643231 -0.738648 -12.613127 -22.994827 0.000000 -0.000000 0.000000 -3.159831 4.924158 18.032299 -0.945994 -0.230631 -7.102311 0.062728 1.165292 -3.283970 1.919321 23.639618 -1.469505 -1.359715 0.797644 -9.340425 5.101810 6.824394 -12.910136 -94.568596 -24.219671 37.471401 161.318592 -39.874482 -116.278259 -55.209669 -13.325854 9.160892 3.841502 11.794620 -3.571320 79.005581 35.858347 36.631153 -160.821588 43.812237 -112.732799 31.067516 2.111537 1.083244 
0.501318 0.184229 0.986384 126.667279 2.144458 103.768769 12.284866 -11.967428 -35.256306 -0.868914 -1.853841 24.352362 0.971270 -3.605609 -11.312672 0.000000 -0.000000 0.000000 -1.008510 -2.289454 -22.032018 -8.617484 -24.096782 32.735504 -0.001978 -11.864436 -20.484596 0.000000 -0.000000 0.000000 -2.996507 5.431113 13.779060 -0.907352 -0.267274 -6.637076 -0.236284 1.286881 -3.616797 2.828398 23.333292 -0.272606 -0.870642 1.447586 -6.436054 5.074304 7.021519 -12.640317 -93.885375 -24.845185 37.438075 161.552753 -40.154934 -116.891149 -53.810034 -13.365886 8.473263 3.456869 11.357625 -3.573511 79.338933 36.262793 37.026411 -160.769169 43.813576 -113.496947 30.705321 1.723721 1.063893 
0.508222 0.190890 0.999879 125.548508 1.781782 103.134020 10.740906 -12.439619 -29.961747 0.919363 -1.831931 17.628664 0.301581 -3.284401 -8.753517 0.000000 -0.000000 0.000000 -0.731193 -2.678809 -17.633016 -7.505294 -24.149368 25.623541 0.783129 -10.493432 -17.910187 0.000000 -0.000000 0.000000 -3.569585 5.980970 9.899557 -0.611947 -0.032797 -6.196638 -0.288345 1.433653 -4.052025 3.947289 23.441835 0.775672 -0.367820 1.751956 -3.754976 5.497120 7.728366 -12.169148 -94.369401 -25.592020 38.055504 161.569397 -40.244386 -117.127687 -54.187829 -13.052966 8.565956 3.752613 10.693487 -3.271628 81.507967 36.709188 38.331450 -160.256971 43.588907 -113.627179 32.758435 1.291998 2.906862 
0.514322 0.196855 1.007582 124.206768 1.377681 103.051554 9.338326 -12.481066 -25.836024 2.513130 -1.349516 11.687748 -0.308329 -2.952160 -6.331536 0.000000 -0.000000 0.000000 -0.312915 -2.736523 -14.465100 -7.329344 -23.953104 19.419453 1.405673 -9.637412 -15.134479 0.000000 -0.000000 0.000000 -4.204401 6.434986 5.724591 -0.348527 0.228580 -5.129374 -0.294029 1.561742 -5.038313 4.971794 23.594715 1.960931 -0.160929 2.187304 -1.757042 6.016644 8.237592 -11.780360 -95.272145 -25.753727 38.677950 161.618939 -39.978814 -117.087602 -55.108651 -12.665961 8.597416 3.319945 10.098802 -3.091670 82.584265 37.153151 39.510639 -159.797841 43.252808 -113.425832 34.397347 1.100165 2.692763 
0.518901 0.202175 1.009936 122.721453 0.979933 103.147491 8.085951 -12.243235 -22.741262 3.713903 -0.541798 7.043350 -0.676947 -2.639424 -4.671333 0.000000 -0.000000 0.000000 -0.121070 -2.716164 -12.285110 -7.377066 -23.874076 14.595221 1.872742 -9.179517 -12.984293 0.000000 -0.000000 0.000000 -4.627575 6.710027 2.228097 -0.157844 0.538475 -4.550920 -0.310446 1.782184 -6.138039 5.971999 23.492742 3.485491 0.129568 2.652066 -0.188874 6.033882 8.631956 -11.543846 -95.685420 -25.582518 39.164216 161.414218 -39.714558 -116.902419 -56.110797 -12.882139 8.348726 3.080812 9.686978 -3.061244 83.523734 37.124069 40.575379 -159.440466 43.008874 -113.254609 36.178221 1.245185 2.438274 
0.522057 0.206125 1.007933 121.594413 0.624340 103.122940 7.469021 -11.720001 -20.973641 3.844572 0.034696 4.564535 -0.834127 -2.717299 -4.072049 0.000000 -0.000000 0.000000 -0.431137 -2.892297 -10.629777 -7.024644 -24.049403 11.366749 2.237107 -8.425838 -11.742564 0.000000 -0.000000 0.000000 -4.888979 6.799061 -0.389412 0.176705 0.719492 -4.074416 -0.364906 1.910390 -7.260193 6.906267 23.614334 5.194727 0.132838 3.224285 0.868474 5.948704 9.368021 -11.226006 -96.080913 -25.405519 39.719839 161.463456 -39.820359 -116.609854 -56.192588 -13.195254 8.054016 3.037652 9.038899 -3.119481 84.632852 36.878679 41.924505 -159.316712 43.067073 -113.003168 36.140944 1.552141 2.427051 
